<?xml version="1.0" encoding="UTF-8" standalone="no"?>
<svg
   id="Слой_1"
   data-name="Слой 1"
   viewBox="0 0 24 24"
   version="1.1"
   sodipodi:docname="easyeda_lib_loader.svg"
   inkscape:version="1.4-beta2 (9aaf4f3498, 2024-07-30)"
   inkscape:export-filename="easyeda_lib_loader_64.png"
   inkscape:export-xdpi="256"
   inkscape:export-ydpi="256"
   xmlns:inkscape="http://www.inkscape.org/namespaces/inkscape"
   xmlns:sodipodi="http://sodipodi.sourceforge.net/DTD/sodipodi-0.dtd"
   xmlns="http://www.w3.org/2000/svg"
   xmlns:svg="http://www.w3.org/2000/svg"
   xmlns:rdf="http://www.w3.org/1999/02/22-rdf-syntax-ns#"
   xmlns:cc="http://creativecommons.org/ns#"
   xmlns:dc="http://purl.org/dc/elements/1.1/">
  <title
     id="title5230">easyeda_3d_loader</title>
  <sodipodi:namedview
     pagecolor="#ffffff"
     bordercolor="#666666"
     borderopacity="1"
     objecttolerance="10"
     gridtolerance="10"
     guidetolerance="10"
     inkscape:pageopacity="0"
     inkscape:pageshadow="2"
     inkscape:window-width="1920"
     inkscape:window-height="1009"
     id="namedview42"
     showgrid="true"
     inkscape:zoom="24.935491"
     inkscape:cx="11.630009"
     inkscape:cy="13.414614"
     inkscape:window-x="-8"
     inkscape:window-y="-8"
     inkscape:window-maximized="1"
     inkscape:current-layer="g865"
     inkscape:document-rotation="0"
     inkscape:showpageshadow="2"
     inkscape:pagecheckerboard="0"
     inkscape:deskcolor="#d1d1d1">
    <inkscape:grid
       type="xygrid"
       id="grid846"
       spacingx="0.5"
       spacingy="0.5"
       color="#aaaaff"
       opacity="0.12549"
       empspacing="2"
       originx="0"
       originy="0"
       units="px" />
  </sodipodi:namedview>
  <metadata
     id="metadata43">
    <rdf:RDF>
      <cc:Work
         rdf:about="">
        <cc:license
           rdf:resource="http://creativecommons.org/publicdomain/zero/1.0/" />
        <dc:title>easyeda_3d_loader</dc:title>
      </cc:Work>
      <cc:License
         rdf:about="http://creativecommons.org/publicdomain/zero/1.0/">
        <cc:permits
           rdf:resource="http://creativecommons.org/ns#Reproduction" />
        <cc:permits
           rdf:resource="http://creativecommons.org/ns#Distribution" />
        <cc:permits
           rdf:resource="http://creativecommons.org/ns#DerivativeWorks" />
      </cc:License>
    </rdf:RDF>
  </metadata>
  <defs
     id="defs5">
    <style
       id="style3">.cls-1{fill:#b9b9b9;}.cls-2{fill:#545454;}.cls-3{fill:none;stroke:#b9b9b9;stroke-linecap:round;stroke-linejoin:round;stroke-width:0.75px;}.cls-4{fill:#1a81c4;}</style>
    <marker
       style="overflow:visible"
       id="marker4900"
       refX="0"
       refY="0"
       orient="auto"
       inkscape:stockid="TriangleInS"
       inkscape:isstock="true"
       markerUnits="strokeWidth">
      <path
         transform="scale(-0.2)"
         style="fill:#bf2641;fill-opacity:1;fill-rule:evenodd;stroke:#bf2641;stroke-width:1pt;stroke-opacity:1"
         d="M 5.77,0 -2.88,5 V -5 Z"
         id="path4898" />
    </marker>
  </defs>
  <g
     id="g865">
    <path
       style="opacity:0.98;fill:#bf2641;fill-opacity:1;stroke:#bf2641;stroke-width:0.979319;stroke-linecap:round;stroke-linejoin:round;stroke-dasharray:none;stroke-opacity:1;paint-order:normal"
       d="M 0.4896543,12.489659 H 11.999995 23.510336 L 23.5,18 12.010958,23.478242 0.4896543,18 Z"
       id="path532"
       sodipodi:nodetypes="ccccccc" />
    <text
       xml:space="preserve"
       style="font-style:normal;font-variant:normal;font-weight:bold;font-stretch:normal;font-size:10.0103px;line-height:1.25;font-family:'Noto Sans';-inkscape-font-specification:'Noto Sans, Bold';font-variant-ligatures:normal;font-variant-caps:normal;font-variant-numeric:normal;font-variant-east-asian:normal;letter-spacing:0px;word-spacing:0px;fill:#f9e7d0;fill-opacity:1;stroke-width:0.938461"
       x="4.9361076"
       y="20.075748"
       id="text1530"
       transform="scale(0.98508911,1.0151366)">Lib</text>
    <path
       class="st0"
       d="M 17.001398,3.4754711 C 16.744301,2.7933065 16.326089,2.1797012 15.774187,1.6826464 14.92748,0.9216385 13.830532,0.5 12.68902,0.5 11.701767,0.5 10.759077,0.80851633 9.9637888,1.3912697 9.5798573,1.6723629 9.2473454,2.0048748 8.9731083,2.3819514 8.8017099,2.3579533 8.6268835,2.3442452 8.4486297,2.3442452 c -0.9838255,0 -1.9128031,0.3839319 -2.60868,1.0798082 -0.6958764,0.6958765 -1.0798082,1.6214263 -1.0798082,2.6086799 0,0.915266 0.3393686,1.7928248 0.9529738,2.4715614 0.4867707,0.5381901 1.1175161,0.918694 1.8133923,1.0969478 0.3016609,0.8981255 1.1517959,1.5460115 2.1493327,1.5460115 1.2512067,0 2.2693117,-1.018105 2.2693117,-2.2693114 0,-0.071987 -0.0035,-0.1474027 -0.01024,-0.2193897 L 15.119446,6.9857072 14.423571,5.7790638 11.379539,7.3764946 C 10.964755,6.903436 10.354579,6.6052032 9.6758423,6.6052032 c -0.983826,0 -1.8236769,0.6307447 -2.1390493,1.5083035 C 6.7346493,7.7604265 6.1724635,6.9617115 6.1724635,6.0293052 c 0,-1.2546346 1.0181048,-2.276167 2.2761675,-2.276167 0.4422073,0 0.8569905,0.1268344 1.2066433,0.3462241 0.4216387,-1.2717743 1.6214267,-2.1904682 3.0337467,-2.1904682 1.645422,0 2.99604,1.2409224 3.177722,2.8349247 0.05827,-0.00686 0.116551,-0.010281 0.174826,-0.010281 0.983826,0 1.782541,0.798715 1.782541,1.7825406 0,0.9324061 -0.716444,1.6968414 -1.628283,1.7756851 h -1.018104 c -0.04457,-0.010281 -0.09256,-0.013714 -0.140548,-0.013714 -0.394214,0 -0.713015,0.3188004 -0.713015,0.7130165 0,0.3736477 0.287949,0.6787367 0.654741,0.7095885 v 0.00686 h 1.216926 0.0617 l 0.0617,-0.00686 c 0.795285,-0.068562 1.532299,-0.4284984 2.073916,-1.0181079 0.545046,-0.5930374 0.846708,-1.3609014 0.846708,-2.1664726 0,-1.4191768 -0.94269,-2.6326753 -2.23846,-3.040603 z M 9.6758403,8.0003826 c 0.4833427,0 0.8775587,0.3942161 0.8775587,0.8775587 0,0.4833427 -0.394216,0.8775588 -0.8775587,0.8775588 -0.4833423,0 -0.8775584,-0.3942161 -0.8775584,-0.8775588 0,-0.4833426 0.3942161,-0.8775587 0.8775584,-0.8775587 z"
       id="path6408"
       style="fill:#5588ff;stroke-width:0.0342796" />
  </g>
</svg>
